<?xml version="1.0" encoding="UTF-8" standalone="no"?>
<svg width="512" height="512" viewBox="0 0 512 512" fill="none" xmlns="http://www.w3.org/2000/svg">
  <rect width="512" height="512" rx="128" fill="url(#paint0_linear)"/>
  <g filter="url(#filter0_d)">
    <path d="M354 179C354 168.954 345.046 160 335 160H177C166.954 160 158 168.954 158 179V333C158 343.046 166.954 352 177 352H335C345.046 352 354 343.046 354 333V179Z" fill="white" fill-opacity="0.9"/>
    <path d="M256 179L335 224V269L256 314L177 269V224L256 179Z" fill="url(#paint1_linear)"/>
    <path d="M256 179L335 224L256 269L177 224L256 179Z" fill="url(#paint2_linear)" fill-opacity="0.5"/>
  </g>
  <defs>
    <filter id="filter0_d" x="138" y="140" width="236" height="232" filterUnits="userSpaceOnUse" color-interpolation-filters="sRGB">
      <feFlood flood-opacity="0" result="BackgroundImageFix"/>
      <feColorMatrix in="SourceAlpha" type="matrix" values="0 0 0 0 0 0 0 0 0 0 0 0 0 0 0 0 0 0 127 0" result="hardAlpha"/>
      <feOffset/>
      <feGaussianBlur stdDeviation="10"/>
      <feComposite in2="hardAlpha" operator="out"/>
      <feColorMatrix type="matrix" values="0 0 0 0 1 0 0 0 0 1 0 0 0 0 1 0 0 0 0.3 0"/>
      <feBlend mode="normal" in2="BackgroundImageFix" result="effect1_dropShadow"/>
      <feBlend mode="normal" in="SourceGraphic" in2="effect1_dropShadow" result="shape"/>
    </filter>
    <linearGradient id="paint0_linear" x1="0" y1="0" x2="512" y2="512" gradientUnits="userSpaceOnUse">
      <stop stop-color="#6E3AFF"/>
      <stop offset="1" stop-color="#2EBAE1"/>
    </linearGradient>
    <linearGradient id="paint1_linear" x1="177" y1="179" x2="335" y2="314" gradientUnits="userSpaceOnUse">
      <stop stop-color="#0E101C"/>
      <stop offset="1" stop-color="#171B2E"/>
    </linearGradient>
    <linearGradient id="paint2_linear" x1="177" y1="179" x2="335" y2="269" gradientUnits="userSpaceOnUse">
      <stop stop-color="#3D2A81"/>
      <stop offset="1" stop-color="#2A4A67"/>
    </linearGradient>
  </defs>
</svg>