<?xml version="1.0" encoding="UTF-8" standalone="no"?>
<svg width="512" height="512" viewBox="0 0 512 512" fill="none" xmlns="http://www.w3.org/2000/svg">
  <rect width="512" height="512" rx="128" fill="url(#paint0_linear)"/>
  <g filter="url(#filter0_d)">
    <path d="M256 140C201.772 140 158 183.772 158 238C158 265.614 168.509 290.731 186.087 309.087C168.756 325.659 158 349.423 158 376C158 426.81 199.19 468 250 468H262C312.81 468 354 426.81 354 376C354 349.423 343.244 325.659 325.913 309.087C343.491 290.731 354 265.614 354 238C354 183.772 310.228 140 256 140Z" fill="white" fill-opacity="0.9"/>
    <path d="M262 286H250C224.624 286 204 306.624 204 332C204 357.376 224.624 378 250 378H262C287.376 378 308 357.376 308 332C308 306.624 287.376 286 262 286Z" fill="url(#paint1_linear)"/>
  </g>
  <defs>
    <filter id="filter0_d" x="138" y="120" width="236" height="368" filterUnits="userSpaceOnUse" color-interpolation-filters="sRGB">
      <feFlood flood-opacity="0" result="BackgroundImageFix"/>
      <feColorMatrix in="SourceAlpha" type="matrix" values="0 0 0 0 0 0 0 0 0 0 0 0 0 0 0 0 0 0 127 0" result="hardAlpha"/>
      <feOffset/>
      <feGaussianBlur stdDeviation="10"/>
      <feComposite in2="hardAlpha" operator="out"/>
      <feColorMatrix type="matrix" values="0 0 0 0 1 0 0 0 0 1 0 0 0 0 1 0 0 0 0.3 0"/>
      <feBlend mode="normal" in2="BackgroundImageFix" result="effect1_dropShadow"/>
      <feBlend mode="normal" in="SourceGraphic" in2="effect1_dropShadow" result="shape"/>
    </filter>
    <linearGradient id="paint0_linear" x1="0" y1="0" x2="512" y2="512" gradientUnits="userSpaceOnUse">
      <stop stop-color="#6E3AFF"/>
      <stop offset="1" stop-color="#2EBAE1"/>
    </linearGradient>
    <linearGradient id="paint1_linear" x1="204" y1="286" x2="308" y2="378" gradientUnits="userSpaceOnUse">
      <stop stop-color="#0E101C"/>
      <stop offset="1" stop-color="#171B2E"/>
    </linearGradient>
  </defs>
</svg>